<svg width="380" height="12" viewBox="0 0 380 12" fill="none" xmlns="http://www.w3.org/2000/svg">
<mask id="mask0_1_1486" style="mask-type:alpha" maskUnits="userSpaceOnUse" x="0" y="0" width="380" height="12">
<rect x="0.517578" width="379.482" height="12" fill="#C4C4C4"/>
</mask>
<g mask="url(#mask0_1_1486)">
<path d="M104.829 -2.53796L105.756 -2.69614L103.952 -2.92291L104.817 -3.08891C105.684 -3.0874 106.808 -2.83866 107.42 -2.97083C107.495 -3.09879 106.55 -3.13986 106.309 -3.24181C106.096 -3.34631 105.922 -3.45013 105.789 -3.55202C106.261 -3.55092 106.781 -3.52628 107.316 -3.47953C108.037 -3.40318 108.743 -3.36607 109.358 -3.37229C110.615 -3.35167 111.83 -3.37224 113.197 -3.36771L112.742 -3.67567L114.503 -3.60362C114.69 -3.58016 114.913 -3.61789 115.096 -3.58887C116.623 -3.34329 117.269 -3.47711 118.002 -3.58807C118.152 -3.61678 118.333 -3.63822 118.54 -3.65182C120.576 -3.593 122.413 -3.24878 124.247 -3.07207C124.592 -3.02695 124.923 -2.96904 125.217 -2.90243C125.855 -2.77295 126.564 -2.66724 127.28 -2.59496C127.997 -2.52269 128.697 -2.48616 129.317 -2.48871C130.688 -2.49157 132.238 -2.40593 133.815 -2.24008C134.284 -2.18545 134.753 -2.14941 135.193 -2.13426C135.633 -2.11911 136.033 -2.12517 136.369 -2.15207L137.435 -1.97627C137.897 -2.04761 138.483 -2.08675 139.158 -2.09131C139.832 -2.09588 140.581 -2.06577 141.359 -2.00283C142.187 -1.93455 143.029 -1.88853 143.888 -1.81633C145.664 -1.67832 147.392 -1.59392 149.019 -1.56575C151.442 -1.48225 153.81 -1.4177 156.254 -1.31361C157.783 -1.26336 159.273 -1.23573 160.715 -1.23085C162.442 -1.21119 164.31 -1.11605 166.229 -0.950019C166.138 -0.794238 165.297 -0.84026 164.732 -0.845532C162.91 -0.871425 161.045 -0.938518 159.171 -0.988921C158.326 -1.00859 157.505 -1.01605 156.712 -1.01122C155.386 -1.01768 153.988 -1.05919 152.542 -1.13504C150.258 -1.2185 148.047 -1.25861 145.932 -1.25498C145.766 -1.24881 145.614 -1.23788 145.479 -1.22236C145.45 -1.20892 145.445 -1.19198 145.462 -1.17315C145.48 -1.15433 145.52 -1.13424 145.579 -1.11484C145.639 -1.09543 145.714 -1.07735 145.8 -1.06231C145.885 -1.04728 145.977 -1.0358 146.067 -1.02897C146.907 -0.9234 147.81 -0.810013 148.602 -0.794062C148.633 -0.792869 148.665 -0.790148 148.698 -0.786091C148.73 -0.782033 148.761 -0.776742 148.789 -0.770603C150.563 -0.547729 152.021 -0.585444 153.403 -0.549183C155.696 -0.451185 157.908 -0.405408 160.003 -0.412547C160.32 -0.412062 160.662 -0.399322 161.016 -0.374788C163.211 -0.27534 165.263 -0.264217 167.076 -0.341924C167.823 -0.36161 168.517 -0.405804 169.319 -0.406544C169.813 -0.409586 170.243 -0.437788 170.583 -0.489463C170.923 -0.541138 171.166 -0.615217 171.298 -0.707246C171.636 -0.658794 171.98 -0.615613 172.325 -0.57822C172.531 -0.556838 172.728 -0.551159 172.877 -0.562347C173.027 -0.573536 173.116 -0.600756 173.128 -0.6385C173.19 -0.744208 172.72 -0.797293 172.312 -0.842561C172.558 -0.865231 172.835 -0.878568 173.137 -0.88225C174.836 -0.906404 176.659 -0.877895 178.565 -0.797351C180.046 -0.700943 181.227 -0.779413 182.784 -0.643456C182.971 -0.619996 183.125 -0.65443 183.297 -0.662697C183.745 -0.706236 184.303 -0.716022 184.923 -0.691199C185.543 -0.666377 186.206 -0.607696 186.854 -0.520244C187.662 -0.759166 189.406 -0.486219 190.695 -0.461689C191.091 -0.340186 190.636 -0.361546 190.617 -0.328165C190.597 -0.294784 190.617 -0.32817 190.461 -0.347721C189.175 -0.175652 187.412 -0.138131 185.421 -0.240434C185.053 -0.240009 184.702 -0.23217 184.372 -0.216992C183.872 -0.19551 183.309 -0.197655 182.706 -0.223334C182.047 -0.242194 181.442 -0.233236 180.92 -0.196896C180.62 -0.197487 180.366 -0.179283 180.182 -0.143957C179.997 -0.108631 179.889 -0.0573282 179.867 0.00518116C180.067 0.0533703 180.29 0.0974645 180.526 0.135712C181.755 0.28673 182.982 0.34924 183.964 0.310943C185.672 0.244959 187.706 0.30935 189.523 0.286823C190.751 0.277698 192.058 0.303691 193.419 0.36432C193.419 0.36432 193.383 0.425519 193.38 0.431083C193.541 0.457578 193.71 0.478839 193.878 0.493644C193.878 0.493644 193.878 0.493644 193.894 0.465826C193.819 0.439113 193.718 0.413981 193.602 0.393343L193.198 0.342512C193.472 0.329284 193.729 0.289898 194.016 0.313963C194.62 0.358668 195.197 0.377541 195.712 0.369462C196.228 0.361382 196.671 0.326508 197.016 0.266938C197.627 0.190592 198.387 0.155871 199.247 0.16502C199.906 0.156687 200.541 0.138772 201.149 0.111368C201.149 0.111368 201.188 0.0446111 201.476 0.00912906C201.203 -0.0346342 200.918 -0.0703701 200.635 -0.0964387C199.404 -0.161567 198.17 -0.221134 196.96 -0.26566C196.514 -0.270471 196.095 -0.263011 195.711 -0.243425C194.647 -0.220504 193.451 -0.253033 192.193 -0.339114C192.193 -0.339114 191.944 -0.370393 191.82 -0.386034C192.172 -0.532788 193.389 -0.385868 193.881 -0.485256C194.181 -0.483445 194.708 -0.470947 194.69 -0.497113C194.649 -0.532027 194.644 -0.564461 194.676 -0.592091C194.707 -0.619721 194.775 -0.641862 194.873 -0.656923C194.971 -0.671983 195.098 -0.679597 195.244 -0.679209C195.39 -0.678823 195.552 -0.670444 195.717 -0.654683C197.103 -0.569417 198.407 -0.545706 199.551 -0.585C199.985 -0.584244 200.471 -0.558971 200.902 -0.55265C201.165 -0.545034 201.406 -0.54927 201.611 -0.565121C202.651 -0.681863 204.051 -0.69039 205.6 -0.589418C206.348 -0.553117 207.048 -0.548262 207.662 -0.575102C208.099 -0.579907 208.284 -0.496905 208.596 -0.457806L209.917 -0.375382L208.22 -0.272103C208.583 -0.035417 208.871 0.0426253 209.464 0.0573692C210.328 0.0796375 211.17 0.089698 211.985 0.0874869C212.587 0.0855427 213.085 0.0345699 213.9 0.125105C214.044 0.139871 214.183 0.144651 214.293 0.138641C215.248 0.0582671 216.398 0.0398197 217.665 0.084562C218.32 -0.0659461 219.438 0.0803861 220.471 0.198291C220.804 0.0849188 220.2 0.0328765 219.84 -0.0362975C220.704 -0.0292173 221.575 -0.0332608 222.467 -0.0167068C222.735 -0.0227328 223.042 -0.012424 223.363 0.0134106C223.684 0.0392424 224.011 0.0798932 224.317 0.132183C224.467 0.165969 224.647 0.191396 224.82 0.203186C224.994 0.214977 225.147 0.212226 225.249 0.195505C225.712 0.146192 226.454 0.191612 226.836 0.108313C226.972 0.0891562 227.167 0.0864817 227.385 0.100758C227.603 0.115034 227.831 0.145336 228.027 0.186232C227.812 0.198993 227.621 0.219085 227.457 0.246068C226.872 0.333726 227.087 0.480186 227.831 0.69312C228.973 0.681408 230.141 0.684734 231.199 0.644602C231.79 0.608579 232.513 0.619839 233.288 0.677124C234.063 0.734406 234.859 0.835441 235.586 0.968864C235.849 1.02017 236.149 1.0557 236.427 1.06841C236.704 1.08112 236.938 1.07007 237.082 1.03745C237.172 0.999726 237.2 0.951983 237.164 0.898362L236.417 0.804524C236.417 0.804524 236.446 0.754452 236.453 0.743325L237.526 0.734913C238.094 0.73462 238.687 0.74937 239.224 0.745167C240.013 0.717224 240.913 0.732799 241.869 0.790929C242.752 0.850533 243.619 0.895587 244.463 0.925693C245.28 0.956682 245.872 0.857894 246.649 0.842116C247.237 0.830225 247.884 0.842933 248.565 0.879745C249.741 0.945034 250.82 0.945155 251.704 0.880097C252.735 1.23062 253.236 1.28761 254.194 1.1929L254.644 1.16584L254.767 1.24102L255.11 1.22449C255.754 1.20976 256.397 1.19504 257.068 1.18979C258.001 1.22232 259.009 1.30984 259.992 1.4438C260.179 1.46726 260.433 1.54697 260.597 1.60937C260.761 1.67178 261.119 1.86004 261.381 1.98259C261.095 2.07206 260.778 2.15761 260.551 2.26045C260.528 2.27803 260.53 2.29898 260.557 2.32163C260.584 2.34428 260.636 2.36799 260.707 2.39087C260.778 2.41374 260.867 2.43513 260.967 2.45333C261.067 2.47153 261.175 2.48602 261.282 2.49565C261.491 2.51639 261.697 2.53021 261.893 2.53656C262.854 2.5475 263.775 2.53937 264.646 2.51224C264.964 2.47398 265.399 2.47034 265.883 2.50192C266.367 2.5335 266.871 2.59848 267.316 2.68656C268.456 2.63368 269.78 2.6493 271.198 2.73233C272.697 2.68183 274.508 2.78396 275.908 2.67331C275.876 2.72895 276.02 2.82473 276.222 2.87992C276.541 2.96375 276.902 3.04144 277.29 3.1097L280.252 3.24297C280.363 3.3115 280.501 3.38087 280.665 3.45018C280.778 3.50493 280.974 3.55851 281.212 3.59955C281.45 3.64059 281.711 3.66588 281.94 3.67005C282.529 3.69035 283.023 3.64495 283.726 3.75713C282.644 3.86318 281.184 3.84909 279.607 3.71738C278.126 3.6172 276.701 3.56713 275.385 3.56904C274.951 3.56828 274.38 3.57413 274.244 3.63473C273.944 3.80599 273.158 3.77892 272.241 3.74733C271.521 3.71275 270.863 3.71663 270.322 3.75865C269.781 3.80068 269.371 3.87965 269.127 3.98906C269.066 4.09477 269.213 4.185 269.845 4.24651L272.474 4.49316C272.861 4.46145 273.229 4.42391 273.575 4.3807C274.158 4.32331 274.878 4.30756 275.679 4.33467C276.48 4.36178 277.341 4.43102 278.193 4.53701C278.629 4.59175 279.065 4.64649 279.38 4.62048C279.658 4.5906 279.913 4.55483 280.144 4.51342C280.191 4.48568 280.21 4.45374 280.2 4.41884C280.367 4.43507 280.535 4.45617 280.697 4.48141C281.995 4.77585 283 4.77075 283.913 4.69438C284.16 4.67168 284.348 4.63559 284.599 4.60733C284.849 4.57906 284.937 4.54237 285.165 4.55306C286.979 4.64962 287.501 4.32709 289.03 4.34004C289.105 4.32744 289.151 4.30861 289.165 4.28527C289.178 4.26194 289.159 4.23486 289.108 4.20652C289 4.18093 288.875 4.15893 288.745 4.14253C288.614 4.12613 288.483 4.11587 288.361 4.11268C287.658 4.07129 287.036 4.08398 286.604 4.14858C286.297 4.17498 285.972 4.19602 285.632 4.21157L284.101 3.7445C285.584 3.78732 286.986 3.78704 288.276 3.74367C288.558 3.71931 289.034 3.76127 289.43 3.76925L292.344 3.8129C292.943 3.81652 293.454 3.7433 294.289 3.91398C294.289 3.91398 294.841 3.9415 294.988 3.9182C295.136 3.8949 295.788 3.74995 296.177 3.65553C296.629 3.68245 297.255 3.75509 297.536 3.73074C298.028 3.67092 298.453 3.59423 298.805 3.50204L300.566 3.63364C300.564 3.75054 300.499 3.86051 300.374 3.96189C300.237 4.05966 300.241 4.17702 300.388 4.30437C300.534 4.43173 300.817 4.56546 301.215 4.69465L302.953 5.37885C303.237 5.42467 303.539 5.45551 303.819 5.46719C304.099 5.47887 304.343 5.47082 304.518 5.44413C305.266 5.3649 306.104 5.30296 306.852 5.22373C307.816 5.34494 307.568 5.54072 308.27 5.71245L310.541 5.99788C310.888 6.26238 311.241 6.51575 310.187 6.6043C309.977 6.61979 310.119 6.72114 309.927 6.76279C310.747 6.96129 311.647 7.02071 312.478 7.14297C312.805 7.2309 313.079 7.32397 313.286 7.41769C313.513 7.55882 313.974 7.70297 314.568 7.81904C315.163 7.9351 315.844 8.01375 316.464 8.03801C317.504 8.11232 318.569 8.22392 319.612 8.36782C319.968 8.41785 320.333 8.45431 320.685 8.47473C321.036 8.49515 321.364 8.49905 321.647 8.48619C322.655 8.46353 323.509 8.38561 324.152 8.25752C324.788 8.1488 325.645 8.09641 326.646 8.10508C328.357 8.32014 328.702 8.64418 329.738 8.9296L327.949 8.9616C327.884 9.07287 328.003 9.21317 327.269 9.2106C326.536 9.20803 326.908 9.31449 327.146 9.42201C327.23 9.4761 327.393 9.53173 327.609 9.5795C327.824 9.62726 328.079 9.66422 328.329 9.68412L329.852 9.82173C330.392 9.87411 330.914 9.89647 331.362 9.88637C331.81 9.87627 332.166 9.8341 332.39 9.76448C332.648 9.69838 333.004 9.65367 333.436 9.63308C333.986 9.57916 334.439 9.49896 334.777 9.39552L336.927 9.54622C337.018 9.44228 337.314 9.3694 337.763 9.33989C338.212 9.31039 338.788 9.32608 339.393 9.38431L340.842 9.47682C342.453 9.57774 342.806 9.54451 343.278 9.25145L341.346 8.72799C341.627 8.59011 341.898 8.46891 342.169 8.34772C341.688 8.17526 341.046 8.01215 340.308 7.87494C339.619 7.72751 338.911 7.58472 338.186 7.44712C337.4 7.30651 336.57 7.18424 335.593 7.02574C335.423 6.97446 335.175 6.88363 334.859 6.79611C334.543 6.71107 334.212 6.6277 333.869 6.54634C333.934 6.43507 333.993 6.33493 333.868 6.20576C334.469 6.24697 335.09 6.31906 335.675 6.41551C336.26 6.51196 336.791 6.62976 337.219 6.75826C337.291 6.78105 337.38 6.80246 337.478 6.82104C337.577 6.83961 337.684 6.85492 337.791 6.86594C338.847 6.94489 339.352 7.10985 339.869 7.3121C340.216 7.41549 340.665 7.50731 341.151 7.57481C342.085 7.69212 342.999 7.8428 343.892 7.97289C344.165 8.01623 344.449 8.05191 344.732 8.07845C345.665 8.16284 346.604 8.28084 347.501 8.42645C347.794 8.46346 348.075 8.51243 348.321 8.56928C348.567 8.62613 348.77 8.68919 348.914 8.75322C348.691 8.82336 348.572 8.9119 348.561 9.0135C348.522 9.08026 349.178 9.21636 349.487 9.315C349.797 9.41365 349.19 9.36717 348.983 9.37709C348.137 9.39618 347.98 9.43617 348.487 9.65511C348.656 9.72396 348.769 9.79285 348.817 9.85749C348.865 9.92213 348.849 9.98115 348.769 10.0309C348.648 10.2367 348.282 10.4058 348.031 10.6071C348.421 10.7397 349.073 10.8814 349.144 11.0456C349.179 11.082 349.251 11.1206 349.356 11.1586C349.461 11.1965 349.596 11.2329 349.751 11.2651C350.161 11.3346 350.533 11.4177 350.839 11.508C351.146 11.5983 351.378 11.6933 351.518 11.7857C351.564 11.824 351.674 11.8645 351.827 11.8993C351.98 11.934 352.165 11.9604 352.344 11.9731C352.557 11.9887 352.748 11.9867 352.878 11.9674C353.007 11.948 353.065 11.9129 353.039 11.8693C353.044 11.7874 353.016 11.702 352.954 11.6139C352.99 11.5527 353.026 11.4915 352.885 11.3901C353.522 11.4271 354.192 11.5012 354.821 11.6045C355.449 11.7077 356.013 11.836 356.451 11.9756C356.934 12.1199 357.38 12.2715 357.916 12.4404C357.805 12.6295 357.805 12.6295 358.946 12.964L364.997 13.1271L366.237 13.3486C367.393 13.5417 367.668 13.5284 368.395 13.4286L368.884 13.3348C369.91 13.4638 371.093 13.6124 371.735 13.3706C371.944 13.5282 372.08 13.5811 372.033 13.6051C371.726 13.8376 371.193 14.0349 370.455 14.1892C370.267 14.2253 370.135 14.2803 369.916 14.3125C369.209 14.4941 369.045 14.7747 369.458 15.097C369.662 15.2396 369.96 15.3856 370.34 15.5303C369.783 15.7312 369.046 15.8976 368.147 16.0252C367.384 16.1238 366.756 16.2559 366.281 16.4177C365.854 16.5809 365.215 16.7035 364.4 16.7786C363.987 16.8105 363.685 16.8735 363.525 16.9613C363.478 17.1989 363.587 17.4533 363.851 17.7188C363.901 17.7996 364.042 17.8869 364.263 17.9738C364.485 18.0607 364.781 18.1449 365.128 18.2197C365.128 18.2197 365.295 18.2766 365.376 18.3105C365.443 18.5983 365.192 18.8519 364.641 19.0543C364.55 19.1117 364.365 19.1532 364.106 19.1742C363.847 19.1953 363.522 19.1951 363.168 19.1738C362.42 19.1395 361.721 19.1353 360.997 19.116C360.218 19.0888 359.531 19.1102 359.009 19.1782C358.487 19.2461 358.15 19.3579 358.033 19.502C358.025 19.5427 358.002 19.5818 357.965 19.6188C357.943 19.6379 357.931 19.6584 357.929 19.68L359.591 20.1516L357.711 20.3393C357.6 20.5285 358.503 20.6419 358.955 20.7824L358.675 20.8607C358.315 20.905 357.831 20.8202 357.392 20.771L356.956 20.7163L356.904 20.8053C356.633 20.9265 355.644 20.7903 355.258 20.8791C354.872 20.968 355.147 21.0683 355.725 21.1648C356.127 21.2366 356.559 21.2938 356.988 21.3322C357.417 21.3706 357.832 21.3891 358.201 21.3864C358.422 21.3769 358.605 21.3552 358.74 21.3226C359.52 21.184 360.382 21.0648 361.319 20.966C362.038 20.8772 362.938 20.8395 363.956 20.8554C364.255 20.8487 364.615 20.8697 364.974 20.9147C365.332 20.9598 365.666 21.026 365.916 21.1017L366.444 21.1142C366.444 21.1142 366.732 21.1922 366.691 21.205C366.49 21.4362 366.724 21.7189 367.356 22.0111L366.806 22.0376C366.02 22.0105 366.518 22.1866 366.401 22.2734C365.843 22.257 365.117 22.1837 364.853 22.2938L364.456 22.2858L364.612 22.3054L364.8 22.2693L365.539 22.4338C365.189 22.4615 364.935 22.4953 364.626 22.5102C364.455 22.5231 364.319 22.546 364.226 22.5774C364.133 22.6088 364.085 22.6481 364.085 22.693C364.086 22.762 363.994 22.8201 363.817 22.8617C363.641 22.9033 363.386 22.9271 363.078 22.9307C362.709 22.9322 362.498 23.0072 362.283 23.0339L363.221 23.4862C363.221 23.4862 362.754 23.4275 363.008 23.5072L363.041 23.4516L363.609 23.5648C364.019 23.6641 364.305 23.6881 364.547 23.617C364.789 23.5459 364.734 23.6405 364.85 23.6133C364.808 23.6856 364.545 23.7361 364.319 23.7794C364.058 23.8134 363.763 23.8385 363.44 23.8541C364.023 24.1722 364.05 24.1816 363.2 24.2658C362.349 24.35 362.642 24.4765 361.93 24.4945C361.218 24.5126 362.028 24.7277 362.504 24.7697C362.858 24.7973 363.218 24.8403 363.56 24.8957C363.903 24.9511 364.219 25.0176 364.488 25.0906L364.345 25.3354C364.136 25.3152 363.926 25.2888 363.723 25.2572C363.033 25.1228 362.406 24.9962 361.792 25.0743L362.084 25.2603L359.943 25.1525C359.998 25.2919 360.325 25.4507 360.853 25.5954C360.773 25.6748 360.725 25.7585 360.707 25.8457C360.671 25.9069 360.46 25.8684 360.322 25.875C359.832 25.8853 359.429 25.9267 359.15 25.9958C358.871 26.0649 358.724 26.1594 358.721 26.2711C358.666 26.3656 359.42 26.5619 359.891 26.5554C361.068 26.5743 362.341 26.6471 363.641 26.7698C364.433 26.7857 364.545 26.537 365.849 26.7068C365.875 26.8216 365.708 26.9146 365.373 26.9717C365.038 27.0288 364.554 27.0468 363.994 27.0231C364.312 27.2782 366.077 27.3447 366.155 27.6113C365.716 27.5924 365.246 27.5481 364.792 27.4827C364.338 27.4173 363.916 27.3331 363.568 27.2383C363.492 27.215 363.398 27.1934 363.293 27.1757C363.188 27.158 363.076 27.1447 362.967 27.137C362.858 27.1293 362.756 27.1274 362.671 27.1316C362.585 27.1358 362.518 27.1459 362.477 27.161C362.721 27.2574 362.99 27.3688 363.297 27.473C363.603 27.5772 363.677 27.6223 363.898 27.6442C365.547 27.8514 366.332 28.2246 367.758 28.4696C368.132 28.5165 368.178 28.6657 367.854 28.6488C367.546 28.632 367.266 28.6342 367.048 28.6552C366.829 28.6762 366.679 28.7152 366.615 28.7679C366.376 28.8293 366.078 28.8782 365.729 28.9133C367.192 29.2963 368.937 29.6347 370.799 29.8968C371.152 29.9486 371.52 29.9801 371.849 29.9869C372.888 29.9872 373.992 30.0176 375.136 30.0774C375.542 30.0937 375.917 30.0922 376.241 30.0729C377.303 30.0272 378.147 30.1273 378.917 30.4092L380.193 30.8561C380.15 30.9284 379.936 31.009 379.771 31.1197L380.768 31.3584L388.37 30.8087L389.896 31.3409L392.085 31.3113C392.253 31.3267 392.421 31.3479 392.583 31.3739C393.025 31.531 393.371 31.682 393.852 31.8319C394.332 31.9818 395.19 32 395.788 32.1767C396.386 32.3534 396.985 32.3571 397.726 32.462C397.795 32.5988 397.723 32.7219 397.514 32.8236C397.446 32.9405 397.07 33.0127 397.005 33.1239C397.012 33.2364 396.872 33.3319 396.598 33.4017C396.324 33.4715 395.924 33.5135 395.435 33.5239C394.066 33.7633 392.414 33.9338 390.53 34.0302C390.364 34.0372 390.227 34.0534 390.127 34.0778C390.026 34.1021 389.965 34.1342 389.946 34.1719C389.949 34.281 389.823 34.3754 389.579 34.4479C389.334 34.5205 388.976 34.5695 388.532 34.5914C388.414 34.5958 388.324 34.6095 388.275 34.6308C388.107 34.6445 387.984 34.6708 387.919 34.7071C387.854 34.7435 387.849 34.7886 387.904 34.8381C387.959 34.8877 388.072 34.94 388.233 34.99C388.394 35.04 388.597 35.086 388.823 35.1235C389.15 35.1841 389.484 35.242 389.823 35.2971C389.804 35.3305 389.467 35.3359 389.516 35.3659C389.649 35.4619 389.68 35.5519 389.606 35.6286C389.532 35.7054 389.356 35.7668 389.091 35.8082L390.908 36.5859C392.01 36.6936 393.092 36.8763 393.948 37.0993C393.949 37.1358 393.9 37.1664 393.805 37.1881C393.71 37.2097 393.573 37.2216 393.408 37.2226C392.965 37.2385 392.546 37.2695 392.068 37.2871C391.776 37.3002 391.533 37.3291 391.353 37.3721C391.173 37.4151 391.06 37.4714 391.02 37.5376L392.087 37.8269C391.745 37.8974 391.491 37.9312 391.265 37.9745C391.393 38.0655 391.613 38.1595 391.908 38.2494C392.203 38.3393 392.565 38.4226 392.967 38.4929C393.074 38.5074 393.184 38.518 393.29 38.524C393.395 38.5301 393.494 38.5315 393.581 38.5282C394.407 38.429 395.373 38.6042 396.312 38.7699C397.251 38.9356 397.76 39.0355 398.453 39.1644L399.779 39.1817C400.115 39.2427 400.414 39.3144 400.654 39.3912C400.893 39.4679 401.066 39.5475 401.158 39.6236C401.086 39.746 400.457 39.679 400.083 39.6916C399.193 39.7678 398.024 39.7515 396.769 39.6455C396.458 39.6064 396.139 39.638 395.836 39.6417C395.183 39.657 394.555 39.6818 393.956 39.716C393.561 39.7479 393.192 39.7873 392.851 39.834C392.76 39.9898 394.193 40.1101 393.38 40.1871C393.66 40.2223 393.765 40.2713 393.909 40.2536C394.831 40.3547 395.74 40.4047 396.53 40.3978C398.046 40.3763 399.767 40.4473 401.553 40.6049C403.481 40.7683 405.33 40.8368 406.947 40.805C407.564 40.8032 408.252 40.8366 408.961 40.9028C409.798 40.9945 410.63 41.0521 411.401 41.072C411.656 41.0727 411.941 41.0883 412.232 41.1175C412.522 41.1468 412.81 41.1888 413.073 41.2403C413.05 41.2792 412.8 41.3075 412.856 41.3264C413.654 41.6179 413.978 41.9213 415.207 42.2191C416.047 42.3246 417.012 42.4458 417.561 42.3059C418.11 42.1659 417.914 42.0456 416.82 41.6872C417.057 41.6821 417.343 41.6988 417.628 41.7345C417.912 41.7703 418.177 41.8227 418.376 41.8827L419.322 42.1509L420.174 42.4072C420.099 42.5352 420.041 42.6353 419.979 42.7411C419.881 42.8533 419.988 42.99 420.285 43.1319C420.464 43.2093 420.62 43.2868 420.751 43.3636C421.284 43.6707 421.438 43.961 421.197 44.2019C420.734 44.5483 420.089 44.867 419.271 45.1543C418.406 45.4338 417.933 45.7864 417.22 46.0911C416.857 46.2298 416.416 46.3541 415.901 46.4627C414.925 46.7044 413.855 46.9343 412.876 47.1815C411.896 47.4286 410.79 47.6062 409.703 47.8099C408.083 48.0517 406.333 48.2605 404.461 48.4352C403.303 48.5883 402.113 48.7374 401.042 48.9134C399.776 49.1117 398.29 49.2541 396.619 49.337C395.143 49.4363 393.825 49.5832 392.689 49.7748C392.57 49.7955 392.476 49.8219 392.41 49.8532C392.205 50.0486 391.632 50.1863 390.778 50.2453C390.83 50.3025 390.896 50.3607 390.976 50.4196C391.095 50.4898 391.12 50.5554 391.047 50.6081C390.975 50.6607 390.809 50.698 390.57 50.7149C389.887 50.7633 389.319 50.8455 388.892 50.9579C388.735 50.9861 388.638 51.0271 388.608 51.0775C388.579 51.1279 388.618 51.1861 388.723 51.2472C388.816 51.31 388.822 51.3678 388.742 51.4132C388.662 51.4585 388.499 51.4892 388.274 51.5013C387.695 51.5608 387.076 51.6086 386.42 51.6446C385.023 51.7238 383.399 51.7228 381.645 51.6418C381.458 51.6183 381.27 51.6544 381.052 51.627C379.812 51.5362 378.66 51.5221 377.736 51.5865C376.652 51.6116 375.519 51.6066 374.377 51.6184C372.726 51.6105 371.204 51.6583 369.852 51.7604C368.306 51.6617 367.437 51.8333 366.133 51.8366C364.928 51.8542 363.787 51.8965 362.719 51.963C360.997 52.0512 359.282 52.1283 357.585 52.2316C355.993 52.2808 354.527 52.3749 353.212 52.5123C352.709 52.5743 351.796 52.4777 351.453 52.6077C351.11 52.7378 350.418 52.7224 349.858 52.7656L348.092 52.8722C347.788 52.8975 347.455 52.9136 347.096 52.9201C345.454 52.9288 344.317 53.1025 342.793 53.1379L342.637 53.1184C339.932 53.3765 336.836 53.5182 333.44 53.5393C331.456 53.6185 329.287 53.6147 327.183 53.6727C326.681 53.7888 325.495 53.6457 324.865 53.7517C324.235 53.8577 323.207 53.7883 322.395 53.8057C321.583 53.8231 320.79 53.8667 319.922 53.8652C319.169 53.8657 318.533 53.913 318.071 54.0029C317.019 54.1515 315.736 54.2388 314.28 54.261C312.353 54.2996 310.532 54.3873 308.572 54.368C308.601 54.4763 308.48 54.5684 308.224 54.6349C307.968 54.7014 307.586 54.7398 307.116 54.7463C305.021 54.7876 303.121 54.8953 300.998 54.9271L300.43 54.9274L294.08 54.9895C292.37 55.0015 290.722 55.0214 288.977 55.035C288.323 54.9529 288.308 55.0943 287.856 55.0673C287.729 54.9977 287.58 54.967 287.358 55.0048L287.309 55.0882L280.063 55.1989C277.226 55.2799 274.242 55.3042 271.136 55.2716C270.399 55.2798 269.711 55.3074 269.083 55.3541C268.501 55.3711 267.895 55.3787 267.267 55.3766C266.417 55.3556 265.587 55.345 264.78 55.3449C262.657 55.3767 260.429 55.3595 258.105 55.3362C255.78 55.3128 254.019 55.3543 251.95 55.3511C250.549 55.3482 249.154 55.3342 247.704 55.3013C247.011 55.2859 246.158 55.2026 245.441 55.1722C244.724 55.1418 244.49 55.1423 244.395 55.1901C244.083 55.3241 243.298 55.2374 242.671 55.2244C241.449 55.2021 241.275 55.1564 240.943 54.8101L242.443 54.7C242.811 54.6645 243.274 54.6583 243.786 54.6819C244.299 54.7055 244.845 54.7583 245.371 54.835C245.578 54.8678 245.794 54.8938 246.007 54.9114C246.221 54.929 246.427 54.9378 246.614 54.9374C248.128 54.9186 249.62 54.8792 251.075 54.8471L251.288 54.826L251.301 54.5172C251.109 54.4869 250.909 54.4618 250.71 54.4429L243.412 54.2425C241.737 54.1933 239.998 54.0823 238.355 54.037C236.711 53.9917 235.825 53.964 234.55 53.9172C234.012 53.8906 233.463 53.8556 232.908 53.8124C232.94 53.7827 232.959 53.751 232.963 53.7178C232.992 53.6678 233.031 53.601 232.795 53.5475C232.538 53.4719 232.194 53.4073 231.832 53.3667C231.492 53.3399 231.163 53.3247 230.856 53.3217C229.376 53.2958 227.686 53.1327 226.145 52.8671L225.607 53.0444C223.294 52.9448 220.946 52.8468 218.53 52.7522C218.046 52.7264 217.538 52.6769 217.045 52.6074C216.516 52.5409 216.029 52.4021 215.472 52.3262C214.922 52.2715 214.375 52.2289 213.843 52.1991C213.987 52.1535 214.177 52.117 214.407 52.0909C214.633 52.0817 214.798 52.0532 214.878 52.0095C214.957 51.9658 214.947 51.9092 214.85 51.8479C214.677 51.7426 214.601 51.6435 214.976 51.6309C215.323 51.6069 215.57 51.5549 215.69 51.4811C215.81 51.4073 215.798 51.3148 215.654 51.2144C215.591 51.1557 215.546 51.0982 215.52 51.0424L215.365 51.0228C214.852 50.815 213.827 50.74 213.091 50.5699C212.744 50.5206 212.384 50.4922 212.069 50.4892C211.255 50.4527 210.463 50.4368 209.622 50.3907C209.22 50.3696 208.799 50.3309 208.385 50.2772C207.794 50.2029 207.732 50.1951 207.389 49.925C207.922 49.9297 208.344 49.8894 208.585 49.8108C208.826 49.7322 208.87 49.6202 208.709 49.4938C208.269 49.2175 207.805 48.9263 205.815 48.73C206.464 48.7203 207.089 48.7011 207.686 48.6724C207.86 48.6663 207.99 48.646 208.059 48.6143C208.128 48.5826 208.133 48.541 208.072 48.4951C208.012 48.4492 207.889 48.4012 207.721 48.3574C207.553 48.3137 207.347 48.2763 207.131 48.2503C206.081 48.0941 204.985 47.9895 203.967 47.9484C203.109 47.9302 202.335 47.9404 201.333 47.9399L200.151 47.7913C200.17 47.7579 199.997 47.7122 200.041 47.6939C200.341 47.5226 200.673 47.3553 201.014 47.1712C200.469 47.0718 199.997 46.9519 199.651 46.825C199.306 46.6982 199.102 46.5696 199.062 46.4541C199.032 46.4192 199.04 46.3874 199.084 46.361C199.128 46.3346 199.208 46.3142 199.318 46.3012C199.629 46.2788 199.869 46.2361 200.02 46.1764C200.171 46.1166 200.228 46.0414 200.187 45.9565L199.268 45.6439C196.499 45.4208 193.78 45.2615 191.161 45.1688L188.797 45.0987C188.512 45.015 188.6 44.9784 188.869 44.9763C189.137 44.9742 189.892 44.9973 190.419 45.0098C190.874 45.0262 191.279 45.0154 191.593 44.9785C191.907 44.9416 192.12 44.8799 192.212 44.7992L191.419 44.4426C191.458 44.3759 191.513 44.2813 191.943 44.2876C192.237 44.2799 192.454 44.2463 192.558 44.1922C192.663 44.1382 192.649 44.0668 192.518 43.9896C192.498 43.9338 192.528 43.8829 192.606 43.8394C193.243 43.8358 193.876 43.8377 194.454 43.8208C194.723 43.8151 194.95 43.7945 195.12 43.7602C195.29 43.7259 195.399 43.6787 195.438 43.622C195.459 43.5666 195.408 43.5035 195.29 43.4378C195.172 43.3721 194.989 43.3057 194.757 43.2438C193.852 43.1673 193.024 43.1663 192.454 43.2411C192.251 43.2997 191.925 43.3317 191.519 43.3329C191.113 43.3341 190.646 43.3044 190.179 43.2478C189.645 43.1825 189.112 43.1538 188.675 43.1669C188.239 43.1799 187.929 43.2339 187.799 43.319C187.251 43.286 186.765 43.2607 186.285 43.2243C185.719 43.1784 185.184 43.1648 184.738 43.1852C184.024 43.1995 183.255 43.1911 182.448 43.1602C180.121 43.0828 177.792 43.0111 175.539 42.9789C174.943 42.9697 174.428 42.9945 173.838 42.9742C173.249 42.9539 172.783 43.0087 172.046 42.8982C171.905 42.881 171.764 42.87 171.633 42.866C171.502 42.862 171.385 42.8651 171.291 42.875C169.997 42.9625 168.479 42.9748 166.827 42.9114C164.565 42.8958 162.219 42.8519 159.954 42.8419C159.289 42.8505 158.661 42.8735 158.077 42.9106C157.632 42.9331 157.165 42.9483 156.681 42.9562C156.309 42.9632 155.954 42.9425 156.016 43.0638C156.079 43.1852 155.522 43.1092 155.201 43.0868C154.099 43.028 152.972 42.9483 151.833 42.8487C150.711 42.7405 149.612 42.6775 148.601 42.6636C147.871 42.6554 147.118 42.6863 146.18 42.5205C146.215 42.4593 146.251 42.3981 146.455 42.3342C145.69 42.1584 144.817 42.0071 143.907 41.8929C142.998 41.7787 142.08 41.7048 141.228 41.6773L140.053 41.3446C139.763 41.3055 139.468 41.277 139.184 41.2609C138.901 41.2448 138.635 41.2414 138.404 41.2509C138.225 41.2557 138.007 41.2433 137.79 41.216C137.572 41.1887 137.371 41.1483 137.221 41.1023C136.998 41.0437 136.726 40.9931 136.438 40.957C136.15 40.9208 135.86 40.9006 135.603 40.8989C134.796 40.8627 133.934 40.7792 133.106 40.6568C132.891 40.5851 132.756 40.5109 132.719 40.4436C132.681 40.3762 132.741 40.3186 132.893 40.2777C133.138 40.2056 133.275 40.1137 133.297 40.0077C133.319 39.9016 133.224 39.7835 133.02 39.6606C132.915 39.5852 132.88 39.5137 132.917 39.4506C132.954 39.3875 133.062 39.334 133.234 39.2934C133.878 39.1056 133.706 39.0004 132.652 38.6888C132.481 38.6369 132.275 38.5883 132.046 38.5462C131.818 38.5042 131.572 38.4695 131.325 38.4444C130.746 38.3937 130.174 38.3559 129.621 38.3318C129.31 38.2927 128.991 38.3242 128.632 38.3091C126.839 38.2331 126.577 38.1105 125.996 37.8465L125.573 37.656C124.788 37.5016 123.93 37.3735 123.06 37.2807C122.19 37.1879 121.33 37.1328 120.542 37.1194C120.229 37.1184 119.869 37.092 119.517 37.0443C118.373 36.8985 117.213 36.7976 116.116 36.7483C115.433 36.7206 114.696 36.6488 113.994 36.5415C113.292 36.4343 112.656 36.2962 112.161 36.1438C111.716 36.0065 111.134 35.8833 110.496 35.7913C109.749 35.6975 109.68 35.5873 110.097 35.5023C110.514 35.4174 111.213 35.3081 111.833 35.2187C112.048 35.1884 112.182 35.139 112.219 35.0762C112.255 35.0133 112.194 34.9394 112.041 34.8627C111.942 34.7314 111.925 34.6068 111.99 34.492C112.024 34.4443 112.001 34.3896 111.92 34.3315C111.839 34.2735 111.704 34.2135 111.522 34.1557C111.341 34.0978 111.118 34.0433 110.868 33.996C110.619 33.9486 110.348 33.9095 110.075 33.8812C108.924 33.7365 107.804 33.5958 106.63 33.49C106.138 33.4402 105.646 33.3784 105.167 33.3063C104.187 33.1277 103.138 32.9797 102.081 32.8707C101.58 32.822 101.09 32.7368 100.717 32.6336C99.5407 32.3555 98.4568 32.0631 97.4851 31.7617C97.2509 31.6682 96.9444 31.577 96.5849 31.4938C96.2254 31.4106 95.8207 31.3372 95.396 31.2782C95.0537 31.2352 94.7751 31.1405 94.5113 31.0775C94.3196 30.9316 94.299 30.7966 94.4518 30.6852C94.6045 30.5738 94.9253 30.4897 95.3843 30.4407C95.8194 30.3819 96.2267 30.3136 96.6029 30.2415C97.0563 30.1831 97.5954 30.1481 98.2001 30.1376C98.9162 30.1063 99.4458 30.0167 99.7197 29.8806C97.7593 29.6343 95.895 29.2806 94.1766 29.3633L92.8709 29.1395C92.9229 29.0505 92.9684 28.9726 93.0107 28.9003C93.3212 28.7686 93.4182 28.6026 93.2934 28.4163C93.1906 28.3261 93.1999 28.2441 93.3203 28.1785C93.4408 28.1129 93.6681 28.066 93.9794 28.0426C95.8231 27.8025 97.9553 27.6404 99.6843 27.368C100.226 27.3169 100.861 27.2936 101.562 27.2993C102.239 27.2829 102.211 27.1599 101.431 27.0082C100.993 26.9289 100.547 26.8529 100.094 26.7805C98.0972 26.7684 97.2837 27.132 95.0047 27.0308L93.9484 26.5517C93.6628 26.5443 93.3855 26.5414 93.1185 26.543L89.2972 26.7376C88.9789 26.7474 88.7311 26.7807 88.5821 26.8337C88.433 26.8868 88.3885 26.9575 88.4538 27.0378C88.4797 27.136 88.427 27.2261 88.2978 27.3048C88.2145 27.3599 88.2678 27.4332 88.4461 27.5086C88.8478 27.6785 88.3323 27.7033 88.0068 27.746C87.9235 27.7502 87.8276 27.7497 87.7244 27.7447C87.6213 27.7396 87.5131 27.7301 87.406 27.7167C87.2988 27.7032 87.195 27.6861 87.1005 27.6663C87.006 27.6465 86.9227 27.6244 86.8554 27.6013C86.2818 27.4397 85.7801 27.2691 85.2163 27.0908C85.6166 26.9201 85.1456 26.64 85.7702 26.4856C85.8401 26.4547 85.868 26.4171 85.8524 26.3751C85.8367 26.3331 85.7778 26.2875 85.6791 26.2412C85.4248 26.1217 85.3036 26.0051 85.3279 25.9033C85.3522 25.8015 85.521 25.7181 85.8174 25.6614L85.8532 25.6002C85.0715 25.3945 85.2786 25.2115 84.9716 24.9938L84.2197 24.8515C82.3489 24.5089 82.3456 24.5145 80.7349 24.5271C80.4103 24.3967 80.8228 24.3769 81.1321 24.362L83.7227 24.2157C85.4164 24.118 87.1594 24.0504 89.0515 24.0134C90.9436 23.9765 93.053 23.8533 95.0087 23.7647C95.1076 23.7578 95.1833 23.7442 95.2293 23.7251C95.2753 23.7059 95.2905 23.6818 95.2734 23.6546C95.1957 23.6252 95.0939 23.5969 94.9757 23.5717C94.8574 23.5465 94.7257 23.5251 94.5902 23.509C93.9678 23.4308 93.3293 23.3804 92.666 23.315L91.4297 23.2015L91.0493 23.0522C90.8018 22.9613 90.6326 22.8505 90.3033 22.7852C90.0319 22.7366 89.7374 22.6996 89.4503 22.6782C89.1631 22.6569 88.894 22.6519 88.6709 22.6637C88.0523 22.6935 87.4926 22.7366 86.9019 22.7759C86.3111 22.8151 85.9855 22.8578 85.4733 22.877C84.4325 22.8858 83.4266 22.9089 82.4601 22.9463C81.646 23.0348 80.893 23.1397 80.2058 23.2603C79.7771 23.3079 79.3763 23.365 78.6443 23.3029C78.297 23.2466 77.9976 23.1726 77.7989 23.0941C77.6002 23.0155 77.5151 22.9375 77.5589 22.8739C77.5981 22.824 77.7093 22.7846 77.8819 22.7592C78.0545 22.7339 78.2828 22.7235 78.5453 22.7291C79.28 22.7199 79.9594 22.6891 80.5698 22.6371C81.4194 22.543 82.4537 22.5024 83.6122 22.5178C84.0051 22.5313 84.2685 22.4808 84.6122 22.4643C84.9558 22.4477 85.247 22.4067 85.6302 22.4369C86.8205 22.5148 87.3913 22.3954 88.1046 22.3179C88.3461 22.2835 88.4957 22.2279 88.537 22.1572C88.5783 22.0865 88.5097 22.0035 88.3386 21.9173C88.0094 21.7456 87.6066 21.5729 87.1367 21.402C86.8948 21.3179 86.5849 21.2381 86.2313 21.1689C85.8777 21.0996 85.49 21.0426 85.0986 21.0025C84.8643 20.8974 84.7394 20.794 84.735 20.7017C84.7306 20.6094 84.847 20.5311 85.0735 20.4739C85.6507 20.3434 86.1625 20.2106 87.456 20.2835C88.0641 20.3114 88.6364 20.3167 89.1501 20.2993C90.2897 20.2755 91.6042 20.3277 92.9697 20.4508C93.323 20.4824 93.6703 20.5039 94.0013 20.5147C96.362 20.5904 98.6112 20.6282 100.867 20.6548C102.062 20.6676 103.267 20.6638 104.514 20.7011C107.44 20.782 110.103 20.7404 112.926 20.7668C114.405 20.7803 115.729 20.7258 116.828 20.6061C117.042 20.566 117.226 20.5191 117.378 20.4661C116.649 20.327 115.849 20.2169 115.054 20.1462C114.259 20.0756 113.495 20.0469 112.837 20.0627C112.475 20.1017 112.006 20.1088 111.485 20.0833C110.963 20.0578 110.408 20.0007 109.881 19.9183L111.412 19.8718C112.427 19.85 113.466 19.8432 114.453 19.812C116.021 19.7581 117.474 19.672 119.098 19.6371C120.408 19.6051 121.581 19.5231 122.58 19.3939C123.301 19.2996 124.125 19.2328 125.034 19.1947C125.681 19.1744 125.681 19.1744 126.094 18.9815C125.766 18.8567 125.342 18.8392 124.943 18.8368C122.548 18.7583 120.269 18.7445 118.153 18.7958C117.085 18.8004 116.137 18.8533 115.356 18.952C115.165 18.9937 114.675 18.9739 114.282 18.9604C113.051 18.9398 111.873 18.9458 110.765 18.9783C109.232 19.0324 107.525 19.0195 105.71 18.9403C105.366 18.8433 105.762 18.8513 105.781 18.8179C107.187 18.7556 108.565 18.6839 109.999 18.6312C110.391 18.6124 110.81 18.6031 111.251 18.6034C112.898 18.6361 114.271 18.5455 115.177 18.3442C115.222 18.2663 115.818 18.2755 116.081 18.225C116.211 18.1813 116.297 18.1298 116.338 18.0721C115.954 17.9283 115.52 17.9276 115.186 17.9274C114.217 17.9434 113.285 17.9739 112.394 18.0185C111.566 18.061 110.649 18.0723 109.669 18.0523C108.945 18.033 108.327 18.0628 107.597 18.0546C107.201 18.0375 106.791 18.0101 106.375 17.9728C106.838 17.8726 107.467 17.811 108.218 17.7923C108.787 17.7324 109.499 17.7144 109.59 17.5586C109.321 17.4472 109.021 17.4454 108.781 17.4569C108.28 17.4565 107.796 17.4635 107.332 17.478C106.348 17.5097 105.283 17.5101 104.158 17.4793C103.566 17.4678 103.004 17.4712 102.482 17.4896C101.299 17.5141 100.165 17.5687 99.0811 17.5938C96.8616 17.6195 94.8372 17.7115 92.7045 17.76C92.2299 17.772 91.8044 17.8141 91.1788 17.7415C90.5532 17.6688 90.5254 17.6594 90.4515 17.6142C90.2764 17.539 90.2234 17.466 90.3034 17.4105C90.4274 17.3586 90.6692 17.3298 90.9855 17.329C92.892 17.2465 94.7002 17.1306 96.399 16.982C97.1465 16.9523 97.8016 16.8916 98.3411 16.8021C98.7691 16.7404 99.2768 16.6996 99.8482 16.6809C100.679 16.6363 101.546 16.6037 102.444 16.5831C102.862 16.572 103.217 16.539 103.489 16.4859C103.761 16.4329 103.944 16.361 104.027 16.2744L102.926 15.9867C102.753 15.9733 102.581 15.9617 102.412 15.952L93.2722 16.1592L92.3671 16.1649C91.375 16.1477 91.1326 16.1053 90.1916 15.7721C92.3391 15.6937 94.0273 15.4652 95.088 15.1093C94.8331 15.0711 94.5717 15.0382 94.31 15.0116C92.5938 14.9274 90.9715 14.9051 89.5054 14.9454C88.6346 14.9494 87.7392 14.9384 86.8406 14.933C87.1034 14.7689 88.1103 14.8178 88.7665 14.7808C90.3345 14.723 91.721 14.6034 92.8818 14.426C93.282 14.3569 93.7827 14.3127 94.361 14.2954C94.9396 14.2895 95.423 14.2476 95.7691 14.1734C96.1151 14.0993 96.3132 13.9951 96.3463 13.87C96.4008 13.7567 96.5183 13.6515 96.6969 13.5558C96.3809 13.42 95.8789 13.29 95.2854 13.1901C94.6919 13.0902 94.0475 13.0274 93.4732 13.0133C92.2473 12.9574 90.9757 12.8659 89.6909 12.7411C89.0508 12.6782 88.4232 12.642 87.8489 12.6351C87.3424 12.6297 86.7666 12.5843 86.2094 12.5056C85.6523 12.427 85.1444 12.3195 84.7631 12.1996C84.2485 12.0513 83.7682 11.9014 83.2879 11.7514C82.8077 11.6015 82.2504 11.4121 81.6898 11.2281C81.1955 11.1994 80.7142 11.1809 80.2523 11.1729C79.893 11.1797 79.4738 11.1596 79.044 11.1152C78.6143 11.0707 78.192 11.0036 77.827 10.9219C78.0411 10.8413 78.2831 10.7702 78.538 10.6768C78.1881 10.5535 77.9343 10.4278 77.7923 10.3073C77.6502 10.1868 77.6228 10.074 77.7117 9.97582C77.7637 9.8868 77.3832 9.73748 77.2518 9.61944C77.0826 9.51768 77.0508 9.42271 77.1606 9.34699C77.2704 9.27127 77.5167 9.21833 77.8671 9.19511C78.3018 9.15226 78.6556 9.08773 78.9139 9.00416C78.9994 8.98247 79.0429 8.95276 79.0404 8.91775C79.038 8.88274 78.9897 8.84356 78.9 8.80377C78.8103 8.76398 78.682 8.72486 78.5268 8.68999C78.3717 8.65512 78.1947 8.62562 78.0119 8.60417C77.4522 8.54337 76.8963 8.50396 76.3762 8.48821C75.4801 8.45922 74.6223 8.44102 73.8027 8.43359C72.8963 8.42241 71.888 8.35339 70.88 8.23355C69.9776 8.12016 69.1685 8.01849 68.7273 7.80181C68.286 7.58512 67.5805 7.59203 67.038 7.43428C67.3428 7.29209 67.8844 7.19329 68.6083 7.14786C69.082 7.13164 69.4774 7.08908 69.7691 7.0229C70.0609 6.95671 70.2425 6.86837 70.3025 6.76355L68.6555 6.32369C67.3402 6.11661 66.6124 6.27599 65.1913 6.19297L66.6556 6.0306C66.685 6.01455 66.696 5.9957 66.6881 5.97496C66.5459 5.64656 66.3197 5.57633 64.8228 5.39421L63.9827 5.28864L62.6529 5.16336C62.44 5.09606 62.2927 5.02587 62.2258 4.95982C62.1589 4.89377 62.1746 4.83417 62.2716 4.78699C62.4664 4.70763 62.5257 4.60623 62.4439 4.49212C62.3149 4.41652 62.3042 4.34684 62.4138 4.29515C62.5233 4.24346 62.746 4.21302 63.0434 4.20914C63.2807 4.20313 63.2983 4.11576 63.4274 4.06629C63.5557 3.99811 63.7753 3.94579 64.0712 3.91289C64.3671 3.88 64.7322 3.86729 65.142 3.87565C66.3502 3.88247 67.4852 3.85688 68.5268 3.79931L68.3401 3.77585C69.4258 3.82639 70.4408 3.83252 71.3357 3.79394C72.2325 3.74539 73.3834 3.77653 74.336 3.74693C75.1114 3.75372 75.7018 3.68652 75.9818 3.5596C76.2531 3.4384 77.2386 3.46669 77.9933 3.48985C78.4404 3.50484 78.8724 3.51119 79.2849 3.50883C79.8386 3.4814 80.5308 3.50726 81.2462 3.58209C81.4609 3.60509 81.6724 3.61726 81.8602 3.61744C83.679 3.64889 85.4944 3.6859 87.2885 3.70232C87.7026 3.69287 88.1882 3.71452 88.6883 3.76474C88.8985 3.78655 89.103 3.79558 89.2745 3.79062C92.1094 3.74075 95.3083 3.868 98.0875 3.79918C98.4243 3.78292 98.7973 3.77955 99.1957 3.78913C100.091 3.82956 100.868 3.80354 101.41 3.71503C101.702 3.66795 102.077 3.64201 102.51 3.63886C102.943 3.6357 103.425 3.65541 103.926 3.69672C104.759 3.75142 105.528 3.75735 106.154 3.71389C107.373 3.67374 108.655 3.65723 109.99 3.66449C110.4 3.67152 110.759 3.65591 111.041 3.61889C111.324 3.58186 111.521 3.52441 111.618 3.45098C111.29 3.32617 110.932 3.31099 110.591 3.32196C109.272 3.29352 107.956 3.25951 106.661 3.24611C105.502 3.20783 104.39 3.19612 103.341 3.21117C102.82 3.22815 102.171 3.18944 101.533 3.10348C100.753 2.99462 99.9486 2.94054 99.2837 2.95217C98.7907 2.95506 98.2704 2.94568 97.7302 2.92418C97.3844 2.89825 97.03 2.85371 96.7033 2.79515C96.5737 2.76972 96.4326 2.74833 96.289 2.73236C96.1455 2.71639 96.0028 2.7062 95.8698 2.70242C95.7369 2.69864 95.6166 2.70136 95.5169 2.71041C95.4171 2.71946 95.3401 2.73464 95.2905 2.75498C94.7904 2.92504 93.672 2.83826 92.7143 2.81945C91.2792 2.53162 90.211 2.70198 88.8697 2.53941C88.7637 2.52863 88.6591 2.5221 88.5626 2.52024C88.4661 2.51838 88.3795 2.52122 88.3082 2.52857C85.7125 2.62642 82.6872 2.54487 79.9619 2.57866C79.6614 2.5836 79.3125 2.56667 78.955 2.52978C76.6187 2.28564 74.3724 2.21633 72.6554 2.3354C72.4465 2.34612 72.2088 2.34658 71.9532 2.33675C70.7792 2.23972 69.6566 2.20103 68.6789 2.22392C67.1468 2.21653 65.6736 2.22252 64.1168 2.20009C63.0437 2.16818 62.1022 2.20228 61.3868 2.29898C61.3641 2.33793 60.8875 2.29596 60.5225 2.2919C60.3126 2.19386 60.1305 2.1053 59.9141 2.01838C59.7206 1.91085 59.4308 1.80204 59.0643 1.69932C58.6979 1.59661 58.2634 1.50239 57.7902 1.42305C56.9811 1.32138 56.9002 1.17386 57.4663 1.11958C58.9255 0.940022 60.7604 0.866528 62.8361 0.904498C64.5712 0.907532 66.3375 0.914484 68.0972 0.932557C69.1236 0.94806 70.2057 0.982497 71.2042 0.988529C71.5412 1.00178 71.8873 1.0213 72.239 1.04689C72.6706 1.084 73.0896 1.10421 73.4735 1.10646C74.7062 1.07521 76.0819 1.10243 77.535 1.18682C78.0673 1.20523 78.5783 1.21143 79.0606 1.20534C80.2017 1.18243 81.4387 1.19929 82.7389 1.25546C83.5471 1.28714 84.3306 1.30371 85.0816 1.30498C85.3468 1.30844 85.5627 1.28183 85.8182 1.30198C88.0665 1.51283 89.6586 1.36054 91.6821 1.44162C92.6656 1.46422 93.6052 1.46429 94.4877 1.44181C96.2101 1.44289 97.9804 1.46601 99.7916 1.51106C102.187 1.58508 104.406 1.5594 106.693 1.58996C107.145 1.59638 107.58 1.59529 107.998 1.58668C110.027 1.5298 112.231 1.54186 114.557 1.62257C115.085 1.63423 115.559 1.61997 115.95 1.5807C116.341 1.54143 116.64 1.47799 116.828 1.39434C116.908 1.33693 116.856 1.26237 116.683 1.18503C116.396 1.08626 116.072 0.989494 115.716 0.896312L102.772 0.583637C102.228 0.567307 101.698 0.558519 101.184 0.557304C99.672 0.554585 98.1137 0.53026 96.5167 0.484451C94.9385 0.44142 93.4309 0.449059 91.902 0.436103C91.4517 0.431764 90.9894 0.421525 90.5171 0.405415C87.3248 0.277912 84.212 0.200035 81.2005 0.172342C79.9336 0.168413 78.5649 0.109897 77.2733 0.0909302C75.9817 0.0719631 74.2154 0.0650188 72.6833 0.0576268L67.9396 0.0587618C67.0065 0.054989 66.0981 0.0662482 65.1929 0.071947C64.0945 -0.334815 63.7159 -0.430156 62.2501 -0.608365C61.7487 -0.674101 61.2386 -0.713331 60.7798 -0.721459C59.3247 -0.689304 57.499 -0.823158 56.1192 -0.805437C55.2865 -0.814179 54.58 -0.768992 54.072 -0.674501C53.6309 -0.600344 53.1266 -0.541664 52.5667 -0.499352C51.0331 -0.847326 50.898 -1.07333 52.0516 -1.16127C52.3642 -1.18172 52.7947 -1.17539 53.0204 -1.2187C53.1499 -1.24507 53.3268 -1.26015 53.537 -1.26276C53.7473 -1.26536 53.985 -1.25543 54.2316 -1.23372C55.0098 -1.17678 55.7392 -1.16338 56.3467 -1.19489C56.9183 -1.23659 57.619 -1.23492 58.3813 -1.19005C58.9414 -1.11967 59.4337 -1.21905 59.9181 -1.24776C60.4025 -1.27647 60.8 -1.32805 61.5566 -1.2509C61.6952 -1.23554 61.8327 -1.22632 61.9587 -1.22394C62.0847 -1.22157 62.1958 -1.2261 62.2835 -1.2372C63.096 -1.28689 64.0657 -1.28167 65.1137 -1.22197C66.7211 -1.16322 68.2292 -1.16102 69.5857 -1.21543C70.3978 -1.26305 71.0901 -1.34749 71.6357 -1.46546C71.7844 -1.50492 72.0052 -1.52858 72.2771 -1.53417C73.6419 -1.50956 75.1239 -1.41692 76.6275 -1.26224C77.1939 -1.20026 77.7596 -1.15123 78.3125 -1.1162C79.4488 -1.03839 80.5478 -0.994787 81.577 -0.986685C83.0725 -0.9854 84.6296 -0.955461 86.2343 -0.89714C87.2247 -0.864667 88.179 -0.852681 89.0859 -0.861315C90.0181 -0.865384 91.0133 -0.840613 92.0491 -0.787579C93.0791 -0.744361 93.9869 -0.769262 94.6629 -0.859269C94.8855 -0.90777 95.0648 -0.965364 95.1974 -1.03098C93.6892 -1.24448 92.1295 -1.35299 90.8321 -1.33464C90.3393 -1.34879 89.9302 -1.33451 89.4109 -1.41767L89.3947 -1.38985C89.2913 -1.3718 89.1355 -1.36754 88.9567 -1.37789C88.778 -1.38824 88.5889 -1.41246 88.4254 -1.44595C88.4872 -1.55166 88.5457 -1.6518 88.5879 -1.72413C89.5764 -1.71137 90.5362 -1.7124 91.4624 -1.72723C92.2431 -1.74858 93.3029 -1.56165 93.9786 -1.63202C95.2967 -1.54403 96.1359 -1.66552 97.3179 -1.63046C98.4999 -1.59541 99.8017 -1.4796 100.984 -1.44455C102.015 -1.42531 103.017 -1.42113 103.983 -1.43202C104.316 -1.44731 104.7 -1.44373 105.112 -1.42148C105.691 -1.37963 106.229 -1.37261 106.665 -1.40125C107.101 -1.42988 107.418 -1.49301 107.578 -1.58339C107.427 -1.66805 107.224 -1.77721 106.989 -1.89029C107.421 -1.98321 108.076 -2.02233 108.858 -2.00184L109.963 -2.00633C110.256 -2.00388 110.48 -2.029 110.588 -2.07649C110.697 -2.12399 110.682 -2.19022 110.546 -2.26149C108.451 -2.6203 108.374 -2.65986 106.836 -2.42907L104.795 -2.53631L104.829 -2.53796ZM132.444 -1.55232L132.289 -1.57187L132.444 -1.55232ZM386.878 36.623L386.842 36.6842L386.881 36.6174L387.223 36.6604L387.246 36.6215L386.878 36.623ZM337.18 9.799C336.696 9.73223 336.208 9.67085 335.717 9.61522C335.589 9.6066 335.469 9.60465 335.367 9.60954C335.265 9.61444 335.185 9.62602 335.133 9.64333C335.094 9.71009 335.368 9.75641 335.617 9.78769C335.931 9.82979 336.251 9.85654 336.546 9.8652C336.84 9.87384 337.098 9.86408 337.291 9.83689L337.573 9.81253L337.18 9.799ZM87.9832 26.0709C88.3017 26.0821 88.6038 26.084 88.8819 26.0763C90.1159 26.0224 91.2973 25.9439 92.5624 25.8938C94.1587 25.7668 95.9929 25.715 97.9963 25.7405C98.779 25.753 99.4402 25.7118 99.9028 25.6218C100.18 25.5735 100.537 25.5452 100.953 25.5388L106.25 25.3921C106.577 25.3617 106.86 25.319 107.092 25.2651C106.625 25.2064 106.314 25.1673 106.128 25.1439C105.74 25.1373 105.407 25.1551 105.162 25.1957C104.899 25.2645 104.453 25.2917 103.915 25.2719C103.371 25.2556 102.841 25.2468 102.327 25.2456C101.356 25.249 100.379 25.2636 99.4053 25.2726C99.0263 25.4639 97.908 25.3771 96.9503 25.3583L96.2104 25.3668C93.7921 25.466 91.482 25.6024 89.2914 25.7754C88.868 25.8047 88.5033 25.8514 88.2084 25.9141C88.0973 25.9629 88.0617 26.0239 88.1044 26.0921L87.9489 26.0725L87.9832 26.0709ZM195.977 44.3585C196.564 44.3715 197.175 44.3983 197.801 44.4384C198.283 44.4793 198.754 44.5042 199.194 44.5119C201.661 44.5548 204.231 44.6538 206.871 44.8077C207.216 44.831 207.547 44.8424 207.853 44.8415L210.013 44.8025C210.694 44.7805 210.707 44.7583 210.212 44.4631C209.8 44.4058 209.384 44.3535 208.967 44.3067C208.718 44.2754 208.314 44.2246 208.219 44.2724C207.642 44.4029 206.589 44.3184 205.703 44.2907C203.139 44.2194 200.495 44.1141 197.907 44.0277C197.36 44.0066 196.83 43.9959 196.322 43.9958C196.007 43.9914 195.72 43.9997 195.473 44.0205C195.401 44.0226 195.34 44.0288 195.295 44.0386C195.251 44.0484 195.223 44.0617 195.213 44.0774C195.204 44.0932 195.214 44.1112 195.242 44.1302C195.27 44.1491 195.315 44.1686 195.375 44.1874C195.587 44.2531 195.832 44.316 196.101 44.3741L195.977 44.3585ZM214.757 1.51677L217.283 1.48178C217.586 1.47802 217.842 1.43863 218.167 1.45548C219.896 1.50887 221.497 1.494 222.902 1.4115C223.38 1.37783 223.94 1.3711 224.55 1.39167C226.419 1.45264 228.181 1.45514 229.79 1.39912C230.83 1.38788 231.803 1.35012 232.695 1.2864C232.764 1.2716 232.806 1.25152 232.821 1.22752C232.835 1.20352 232.819 1.17616 232.776 1.14731C232.765 1.12908 232.734 1.10947 232.687 1.08984C232.639 1.0702 232.575 1.051 232.499 1.03356C232.424 1.01613 232.339 1.00087 232.249 0.988832C232.16 0.976795 232.068 0.968263 231.982 0.963838C230.855 0.877584 229.785 0.847537 228.86 0.876132C228.002 0.910346 227.078 0.920356 226.103 0.90601C225.17 0.902236 224.537 1.0138 223.384 0.928671C222.897 0.900641 222.467 0.909867 222.167 0.954813C221.563 1.0293 220.72 1.03345 219.788 0.966504C219.231 0.932624 218.698 0.918096 218.21 0.923471C217.027 0.947963 215.896 0.996964 214.799 1.04431C214.454 1.05527 214.084 1.05678 213.695 1.04881L208.204 0.956098C206.884 0.927657 205.568 0.893653 204.273 0.880251C203.214 0.851147 202.229 0.860262 201.352 0.907273C200.416 0.956684 199.396 0.976744 198.311 0.967074C196.625 0.994112 194.949 1.00446 193.114 1.00082C191.943 1.00305 190.745 0.995824 189.522 0.973549C188.904 0.944884 188.378 0.968229 188.048 1.03909C187.847 1.09743 187.373 1.0499 186.98 1.03636C184.885 0.905869 182.919 0.874949 181.221 0.945756C181.005 0.957294 180.767 0.961472 180.513 0.958215C178.877 0.955784 177.183 0.939969 175.613 0.939794C175.2 0.945294 174.811 0.960391 174.451 0.98489C174.49 1.02486 174.6 1.06818 174.758 1.10586C174.916 1.14355 175.111 1.17271 175.302 1.1873C176.786 1.29896 178.22 1.35795 179.542 1.36179C181.743 1.34756 184.048 1.37954 186.434 1.45738C188.285 1.53586 189.973 1.51934 191.372 1.40904C192.466 1.32675 193.888 1.35771 195.396 1.49662C196.041 1.56297 196.667 1.58949 197.189 1.57258C197.691 1.5504 198.267 1.55578 198.883 1.5884C200.182 1.65044 201.432 1.67922 202.607 1.67417C203.756 1.65133 204.828 1.58895 206.008 1.57002C207.188 1.55109 208.986 1.56194 210.441 1.52978C211.896 1.49763 213.335 1.49329 214.757 1.51677ZM110.106 -1.73747C110.24 -1.56545 110.712 -1.45838 111.219 -1.41251C112.97 -1.20883 114.7 -1.12216 116.12 -1.16704C116.887 -1.22964 117.909 -1.20554 118.986 -1.09948C120.24 -0.989228 121.412 -0.970944 122.296 -1.04785C122.513 -1.06129 122.678 -1.0897 122.779 -1.13054C122.798 -1.16392 122.834 -1.22512 122.84 -1.23625C122.748 -1.26447 122.634 -1.29062 122.508 -1.31267C122.381 -1.33473 122.246 -1.35211 122.113 -1.36347L116.316 -1.56039L115.306 -1.60372C113.461 -1.71725 111.702 -1.76247 110.106 -1.73747ZM121.509 0.98527C122.414 1.26617 122.417 1.2606 122.881 1.32481C125.117 1.59154 127.352 1.73552 129.319 1.73963C129.756 1.73881 130.127 1.7117 130.401 1.66056C130.541 1.65363 130.631 1.63161 130.65 1.5993C130.669 1.56699 130.615 1.52701 130.501 1.48809L129.782 1.2902C128.475 1.20452 127.187 1.13645 125.926 1.08638C124.458 1.02727 123.156 1.02498 121.634 1.0009L121.509 0.98527ZM195.868 43.1147C196.711 43.5013 196.715 43.4957 198.126 43.5954C199.11 43.6661 200.064 43.7076 200.96 43.7186C202.055 43.7308 203.178 43.7525 204.27 43.7702C204.537 43.7826 204.763 43.7723 204.904 43.7416C205.046 43.7108 205.092 43.6616 205.035 43.6037C204.892 43.5407 204.668 43.4799 204.4 43.4309C204.131 43.382 203.834 43.3479 203.556 43.3342L202.96 43.325C202.237 43.3057 201.485 43.277 200.786 43.2728C200.333 43.2888 199.807 43.2764 199.251 43.2366C198.695 43.1967 198.123 43.1305 197.58 43.0431L195.868 43.1147ZM126.011 -1.23198C126.236 -1.16503 126.491 -1.10091 126.768 -1.04131C127.842 -0.876141 128.978 -0.782329 129.955 -0.77827C130.416 -0.768038 130.838 -0.80457 131.308 -0.751484C132.151 -0.680544 132.968 -0.642756 133.715 -0.640165C133.715 -0.640165 133.925 -0.655655 133.993 -0.658962L134.136 -0.903758C133.783 -0.960468 133.414 -1.0068 133.047 -1.04061C131.816 -1.10574 130.606 -1.15027 129.4 -1.20036C128.193 -1.25045 127.772 -1.27346 126.983 -1.29497C126.631 -1.28315 126.306 -1.26205 126.011 -1.23198ZM99.3484 29.201L100.96 29.702C101.481 29.7456 101.968 29.7535 102.347 29.7245C102.725 29.6955 102.975 29.6313 103.057 29.5416C103.19 29.4996 103.203 29.4374 103.094 29.3681C102.986 29.2987 102.763 29.2276 102.473 29.1696C102.194 29.1008 101.876 29.0392 101.538 28.9885C101.2 28.9378 100.849 28.8991 100.508 28.8748L99.3484 29.201ZM112.764 26.7063C111.71 26.6213 110.702 26.5866 109.817 26.6047C109.259 26.6544 108.504 26.6386 107.705 26.5604C106.253 26.4045 104.853 26.3613 103.8 26.44C103.8 26.44 103.761 26.5068 103.583 26.5261C103.405 26.5455 104.112 26.5926 104.268 26.6122C105.409 26.66 106.556 26.6967 107.548 26.7139C108.164 26.7131 108.816 26.7289 109.492 26.761C110.421 26.8104 111.303 26.8264 112.103 26.8084C112.103 26.8084 112.412 26.7935 112.76 26.7118L112.764 26.7063ZM225.308 0.609017C224.805 0.514654 224.259 0.43796 223.711 0.384697C223.164 0.331432 222.629 0.302979 222.147 0.301465C221.778 0.296542 221.48 0.321455 221.299 0.372268C221.118 0.423082 221.065 0.496896 221.149 0.582036C221.522 0.628956 222.02 0.691515 222.3 0.726707C223.271 0.723262 224.099 0.678016 225.308 0.609017ZM319.532 8.56089C319.128 8.48493 318.683 8.42685 318.248 8.39329C317.813 8.35973 317.405 8.35204 317.071 8.37109C316.899 8.37936 317.016 8.46567 316.987 8.51575C316.968 8.5271 316.968 8.54122 316.987 8.55662C317.007 8.57203 317.045 8.58817 317.098 8.60333C317.15 8.61849 317.215 8.63212 317.286 8.64279C317.357 8.65347 317.432 8.6608 317.501 8.66401C317.939 8.69674 318.353 8.70647 318.705 8.69237C319.057 8.67825 319.337 8.64074 319.519 8.58314L319.532 8.56089ZM325.845 9.64679C325.783 9.60196 325.65 9.55525 325.471 9.5152C325.292 9.47515 325.079 9.44445 324.871 9.42875C324.503 9.42663 324.168 9.43907 323.88 9.46557C323.568 9.48601 323.793 9.61579 324.215 9.69278C324.394 9.72369 324.586 9.7478 324.774 9.76319C324.962 9.77858 325.142 9.78483 325.3 9.78145C325.457 9.77806 325.588 9.76513 325.682 9.74369C325.775 9.72224 325.829 9.69287 325.839 9.65792L325.845 9.64679ZM142.4 -0.755216C141.458 -0.915373 140.733 -0.875081 139.936 -0.939452C139.138 -1.00382 138.942 -1.01059 139.049 -0.90759C139.156 -0.804586 139.702 -0.825477 140.044 -0.782466C140.507 -0.725393 140.972 -0.692624 141.388 -0.687811C141.804 -0.682997 142.155 -0.706336 142.4 -0.755216ZM338.671 26.3435C338.173 26.3076 337.684 26.2822 337.213 26.2677C337.151 26.2826 337.112 26.3021 337.098 26.325C337.085 26.348 337.097 26.3739 337.135 26.4013C337.135 26.4013 337.454 26.4832 337.641 26.5067C338.329 26.5871 338.363 26.4719 338.671 26.3435ZM409.184 41.2652C409.522 41.3733 409.679 41.4468 409.949 41.4987C410.073 41.5167 410.202 41.5298 410.325 41.537C410.448 41.5442 410.562 41.5453 410.66 41.5402C410.779 41.5091 410.806 41.4614 410.738 41.4067C410.738 41.4067 410.394 41.3097 410.263 41.3052C409.889 41.2823 409.527 41.2689 409.184 41.2652ZM126.368 -1.6709C125.652 -1.76083 124.967 -1.84686 124.472 -1.74191C125.608 -1.62897 125.608 -1.62896 126.368 -1.6709ZM137.96 -0.644314C137.237 -0.836645 136.813 -0.854099 136.466 -0.832001C136.392 -0.826435 136.343 -0.814029 136.327 -0.796667C136.31 -0.779307 136.327 -0.757931 136.375 -0.735774C136.422 -0.713618 136.498 -0.691888 136.59 -0.673871C136.682 -0.655853 136.786 -0.642526 136.886 -0.635912C137.263 -0.630375 137.622 -0.633187 137.96 -0.644314ZM175.155 -0.562986C175.171 -0.590804 175.191 -0.624185 175.004 -0.647645C174.955 -0.659554 174.898 -0.669795 174.838 -0.677346C174.778 -0.684895 174.717 -0.689482 174.662 -0.690649C174.662 -0.690649 174.642 -0.657266 174.629 -0.635012L175.155 -0.562986ZM200.985 45.6208L200.569 45.6462L200.756 45.6696L201.248 45.6838L200.985 45.6208ZM347.343 9.21272C347.187 9.19317 347.031 9.17362 347.009 9.21256C346.976 9.21859 346.955 9.2273 346.949 9.23795C346.943 9.24859 346.951 9.26087 346.973 9.27376C346.973 9.27376 347.191 9.30114 347.284 9.31287L347.343 9.21272ZM323.111 9.5242C323.009 9.52197 322.917 9.52458 322.84 9.53187L322.82 9.56525L323.131 9.60435L323.111 9.5242ZM111.942 17.4779C111.822 17.4576 111.694 17.4416 111.568 17.431L111.413 17.4114C111.413 17.4114 111.58 17.4683 111.673 17.48C111.767 17.4917 111.842 17.4773 111.942 17.4779Z" fill="#F8FDFF"/>
</g>
</svg>
